<svg xmlns="http://www.w3.org/2000/svg" viewBox="0 0 1200 800" role="img" aria-label="CampaignForge preview">
  <defs>
    <linearGradient id="bg" x1="0" y1="0" x2="1" y2="1">
      <stop offset="0%" stop-color="#081325"/>
      <stop offset="55%" stop-color="#101e3d"/>
      <stop offset="100%" stop-color="#1c3f8e"/>
    </linearGradient>
    <linearGradient id="card" x1="0" y1="0" x2="1" y2="1">
      <stop offset="0%" stop-color="#1c2749"/>
      <stop offset="100%" stop-color="#0a1020"/>
    </linearGradient>
    <linearGradient id="accent" x1="0" y1="0" x2="1" y2="0">
      <stop offset="0%" stop-color="#7c6cff"/>
      <stop offset="100%" stop-color="#5db8ff"/>
    </linearGradient>
  </defs>
  <rect width="1200" height="800" fill="url(#bg)"/>
  <circle cx="980" cy="120" r="220" fill="#6f4aff" opacity=".2"/>
  <circle cx="180" cy="650" r="170" fill="#50a6ff" opacity=".12"/>
  <rect x="120" y="120" width="960" height="560" rx="28" fill="url(#card)" stroke="#9fb0ff" stroke-opacity=".16"/>
  <rect x="152" y="154" width="232" height="492" rx="22" fill="#091122" stroke="#ffffff" stroke-opacity=".08"/>
  <rect x="184" y="184" width="168" height="18" rx="9" fill="url(#accent)"/>
  <rect x="184" y="230" width="152" height="14" rx="7" fill="#6e7ea8" opacity=".75"/>
  <rect x="184" y="260" width="168" height="14" rx="7" fill="#6e7ea8" opacity=".55"/>
  <rect x="184" y="304" width="176" height="84" rx="18" fill="#152043"/>
  <rect x="184" y="404" width="176" height="84" rx="18" fill="#152043"/>
  <rect x="184" y="504" width="176" height="84" rx="18" fill="#152043"/>
  <rect x="432" y="154" width="616" height="492" rx="22" fill="#0c152b" stroke="#ffffff" stroke-opacity=".08"/>
  <rect x="462" y="186" width="552" height="20" rx="10" fill="#2b3b6e"/>
  <rect x="462" y="236" width="260" height="148" rx="22" fill="#182448"/>
  <rect x="746" y="236" width="268" height="148" rx="22" fill="#182448"/>
  <rect x="462" y="408" width="552" height="198" rx="22" fill="#121d3a"/>
  <path d="M492 552h88l42-74 48 30 54-86 46 54 26-18 70 94" fill="none" stroke="#5db8ff" stroke-width="8" stroke-linecap="round" stroke-linejoin="round"/>
  <circle cx="556" cy="272" r="28" fill="#7c6cff"/>
  <circle cx="842" cy="272" r="28" fill="#5db8ff"/>
  <rect x="528" y="316" width="112" height="14" rx="7" fill="#aab6df"/>
  <rect x="812" y="316" width="112" height="14" rx="7" fill="#aab6df"/>
</svg>
