<svg xmlns="http://www.w3.org/2000/svg" viewBox="0 0 1200 800" role="img" aria-label="Invoice Dashboard preview">
  <defs>
    <linearGradient id="bg" x1="0" y1="0" x2="1" y2="1">
      <stop offset="0%" stop-color="#0b0f1d"/>
      <stop offset="55%" stop-color="#171e35"/>
      <stop offset="100%" stop-color="#394e83"/>
    </linearGradient>
    <linearGradient id="accent" x1="0" y1="0" x2="1" y2="1">
      <stop offset="0%" stop-color="#7f6bff"/>
      <stop offset="100%" stop-color="#62a8ff"/>
    </linearGradient>
  </defs>
  <rect width="1200" height="800" fill="url(#bg)"/>
  <rect x="90" y="110" width="1020" height="580" rx="32" fill="#08101f" stroke="#ffffff" stroke-opacity=".08"/>
  <rect x="130" y="150" width="220" height="500" rx="24" fill="#10192f"/>
  <rect x="380" y="150" width="690" height="500" rx="24" fill="#0c1426"/>
  <rect x="160" y="184" width="150" height="18" rx="9" fill="url(#accent)"/>
  <rect x="160" y="240" width="150" height="66" rx="16" fill="#18223b"/>
  <rect x="160" y="324" width="150" height="66" rx="16" fill="#18223b"/>
  <rect x="160" y="408" width="150" height="66" rx="16" fill="#18223b"/>
  <rect x="160" y="492" width="150" height="66" rx="16" fill="#18223b"/>
  <rect x="420" y="184" width="220" height="18" rx="9" fill="#7f6bff"/>
  <rect x="420" y="234" width="622" height="96" rx="20" fill="#17233f"/>
  <rect x="420" y="348" width="302" height="178" rx="20" fill="#17233f"/>
  <rect x="740" y="348" width="302" height="178" rx="20" fill="#17233f"/>
  <rect x="420" y="548" width="622" height="62" rx="18" fill="#17233f"/>
  <path d="M458 280h108m-108 26h158m-158 26h84" stroke="#b5c1ea" stroke-width="10" stroke-linecap="round"/>
  <path d="M774 492c36-38 82-58 130-58 40 0 86 12 138 38" fill="none" stroke="url(#accent)" stroke-width="12" stroke-linecap="round"/>
  <rect x="470" y="386" width="110" height="18" rx="9" fill="#62a8ff"/>
  <rect x="470" y="426" width="150" height="14" rx="7" fill="#aab6df"/>
  <rect x="470" y="458" width="124" height="14" rx="7" fill="#aab6df"/>
  <rect x="790" y="386" width="110" height="18" rx="9" fill="#7f6bff"/>
  <rect x="790" y="426" width="150" height="14" rx="7" fill="#aab6df"/>
  <rect x="790" y="458" width="124" height="14" rx="7" fill="#aab6df"/>
</svg>
