<svg xmlns="http://www.w3.org/2000/svg" viewBox="0 0 1200 800" role="img" aria-label="Nexus AI preview">
  <defs>
    <linearGradient id="bg" x1="0" y1="0" x2="1" y2="1">
      <stop offset="0%" stop-color="#07101f"/>
      <stop offset="55%" stop-color="#121a33"/>
      <stop offset="100%" stop-color="#2f2c7c"/>
    </linearGradient>
    <linearGradient id="node" x1="0" y1="0" x2="1" y2="1">
      <stop offset="0%" stop-color="#6fd2ff"/>
      <stop offset="100%" stop-color="#8a63ff"/>
    </linearGradient>
  </defs>
  <rect width="1200" height="800" fill="url(#bg)"/>
  <circle cx="980" cy="130" r="200" fill="#7c6cff" opacity=".16"/>
  <circle cx="180" cy="640" r="190" fill="#6fd2ff" opacity=".1"/>
  <rect x="100" y="110" width="1000" height="580" rx="30" fill="#0a1224" stroke="#ffffff" stroke-opacity=".08"/>
  <rect x="136" y="148" width="920" height="42" rx="18" fill="#131f3b"/>
  <rect x="136" y="214" width="360" height="424" rx="24" fill="#111b34"/>
  <rect x="520" y="214" width="536" height="424" rx="24" fill="#111b34"/>
  <rect x="172" y="250" width="288" height="24" rx="12" fill="url(#node)"/>
  <rect x="172" y="300" width="220" height="14" rx="7" fill="#aab6df"/>
  <rect x="172" y="334" width="242" height="14" rx="7" fill="#aab6df"/>
  <rect x="172" y="368" width="196" height="14" rx="7" fill="#aab6df"/>
  <circle cx="718" cy="326" r="28" fill="#6fd2ff"/>
  <circle cx="846" cy="280" r="22" fill="#8a63ff"/>
  <circle cx="924" cy="362" r="34" fill="#5db8ff"/>
  <circle cx="778" cy="462" r="26" fill="#76ff9f"/>
  <circle cx="946" cy="478" r="30" fill="#ffcb6b"/>
  <path d="M718 326L846 280L924 362L778 462L946 478" fill="none" stroke="url(#node)" stroke-width="10" stroke-linecap="round" stroke-linejoin="round"/>
  <path d="M718 326L778 462L846 280L946 478" fill="none" stroke="#33406f" stroke-width="4" stroke-dasharray="8 10"/>
  <rect x="580" y="548" width="420" height="20" rx="10" fill="#22345d"/>
</svg>
